<?xml version="1.0" standalone="no"?>
<!DOCTYPE svg PUBLIC "-//W3C//DTD SVG 20010904//EN"
 "http://www.w3.org/TR/2001/REC-SVG-20010904/DTD/svg10.dtd">
<svg version="1.0" xmlns="http://www.w3.org/2000/svg"
 width="640.000000pt" height="640.000000pt" viewBox="0 0 640.000000 640.000000"
 preserveAspectRatio="xMidYMid meet">
<metadata>
Created by potrace 1.14, written by Peter Selinger 2001-2017
</metadata>
<g transform="translate(0.000000,640.000000) scale(0.100000,-0.100000)"
fill="#000000" stroke="none">
<path d="M3040 5189 c0 -4 -22 -9 -49 -11 -45 -4 -186 -45 -256 -73 -104 -43
-161 -70 -171 -82 -6 -7 -13 -11 -15 -10 -2 2 25 -24 60 -58 35 -33 77 -76 93
-95 17 -19 25 -25 19 -13 -17 33 -13 40 6 13 10 -14 16 -29 15 -34 -4 -12 30
-76 40 -76 5 0 8 -5 8 -12 0 -6 9 -21 19 -32 22 -24 71 -114 71 -130 0 -8 -63
-18 -182 -29 -303 -29 -406 -48 -618 -112 -93 -29 -261 -109 -287 -137 -47
-52 -43 7 6 100 21 39 36 72 33 72 -13 0 -62 -62 -56 -72 4 -7 3 -8 -4 -4 -7
4 -23 -5 -37 -21 -14 -15 -33 -37 -43 -48 -10 -11 -31 -38 -48 -60 -36 -49
-44 -59 -88 -113 -20 -24 -36 -47 -36 -51 0 -4 -8 -16 -17 -27 -23 -26 -63
-82 -63 -88 0 -3 -14 -29 -32 -58 -51 -85 -158 -297 -158 -313 0 -8 -4 -15
-10 -15 -5 0 -10 -9 -10 -19 0 -11 -12 -42 -26 -70 -14 -28 -34 -79 -45 -114
-11 -34 -24 -71 -29 -82 -15 -31 -79 -287 -96 -383 -21 -115 -24 -371 -5 -432
33 -106 54 -158 81 -197 28 -38 40 -93 22 -93 -4 0 -16 -15 -26 -32 -11 -18
-26 -40 -35 -49 -24 -25 -51 -59 -51 -64 0 -3 -14 -24 -30 -47 -17 -22 -30
-47 -30 -54 0 -7 -11 -21 -25 -32 -14 -11 -25 -24 -25 -30 0 -5 -7 -15 -15
-22 -7 -6 -28 -36 -45 -66 -16 -30 -35 -54 -40 -54 -6 0 -10 -6 -10 -13 0 -8
-11 -34 -25 -58 -13 -24 -39 -71 -56 -104 -17 -32 -42 -76 -55 -97 -13 -21
-24 -45 -24 -53 0 -8 -11 -32 -24 -53 -13 -21 -38 -74 -55 -118 -18 -43 -43
-100 -56 -127 -14 -26 -25 -58 -25 -71 0 -13 -14 -54 -30 -91 -17 -37 -30 -73
-30 -80 0 -7 -3 -15 -7 -17 -5 -2 -16 -28 -26 -58 -29 -87 -51 -140 -59 -140
-5 0 -8 -11 -8 -24 0 -13 -13 -57 -30 -97 -16 -41 -30 -82 -30 -91 0 -10 -4
-18 -9 -18 -5 0 -11 -12 -14 -28 -8 -43 -58 -177 -68 -180 -5 -2 -9 -21 -9
-43 0 -21 -4 -39 -10 -39 -5 0 -10 -4 -10 -10 0 -5 -13 -39 -30 -73 -16 -35
-30 -67 -30 -70 0 -4 383 -7 852 -7 l851 0 -59 39 c-110 72 -167 147 -222 296
-55 149 -75 283 -92 600 -13 246 -24 1005 -16 1005 4 0 26 -13 49 -28 70 -48
390 -192 425 -192 4 0 41 -11 82 -24 96 -30 414 -91 550 -106 164 -17 494 -28
501 -17 8 11 0 89 -10 99 -4 5 -36 11 -71 14 -141 13 -489 96 -558 133 -10 5
-45 19 -78 30 -78 27 -411 196 -439 222 -5 5 -17 9 -27 9 -10 0 -18 4 -18 9 0
10 -124 91 -140 91 -5 0 -10 3 -10 8 0 4 -17 15 -37 24 -21 9 -63 39 -93 67
-30 28 -61 48 -68 46 -7 -3 -10 0 -6 6 3 6 -6 23 -21 39 l-27 28 1 308 c1 169
4 310 6 315 8 12 85 49 148 71 34 11 76 26 92 33 17 7 43 17 58 24 15 6 25 16
22 21 -4 6 4 9 17 7 15 -1 22 3 20 12 -2 8 3 11 11 8 24 -9 164 113 152 133
-3 5 0 7 9 4 8 -3 19 2 25 14 12 23 149 116 196 133 19 7 36 20 38 28 2 9 15
-9 29 -41 29 -62 64 -88 119 -88 69 0 129 70 116 136 -6 32 17 44 85 44 29 0
91 7 137 15 46 8 86 13 88 11 3 -2 0 -21 -6 -43 -35 -127 14 -303 114 -409 36
-38 114 -85 170 -104 56 -19 83 -22 163 -18 84 3 106 8 165 37 89 42 170 123
209 208 24 51 32 82 36 151 2 48 0 103 -6 123 -14 50 -5 60 43 49 22 -5 57
-10 78 -10 35 0 38 -2 30 -22 -29 -85 31 -168 122 -168 26 0 45 9 72 34 32 29
37 40 37 77 0 24 -3 56 -8 70 -7 24 -5 27 25 33 17 3 99 6 180 6 136 0 155 -2
211 -25 68 -28 155 -84 188 -122 12 -13 28 -22 35 -19 9 3 12 0 9 -8 -3 -7 1
-20 8 -27 27 -28 78 -97 78 -105 1 -18 72 -44 118 -44 26 0 68 7 94 15 26 7
50 11 52 7 5 -8 10 -179 22 -657 l7 -270 -49 -32 c-27 -18 -71 -47 -99 -66
-27 -18 -70 -44 -95 -58 -25 -13 -59 -34 -76 -46 -17 -13 -34 -23 -37 -23 -3
0 -25 -13 -49 -29 -37 -25 -193 -110 -268 -147 -39 -19 -109 -49 -180 -78 -36
-15 -74 -31 -85 -36 -20 -9 -111 -39 -235 -78 -36 -11 -87 -23 -115 -27 -27
-4 -72 -11 -98 -17 l-49 -10 4 -53 c2 -39 0 -51 -9 -48 -7 3 -13 -2 -13 -11 0
-13 11 -16 53 -16 91 0 399 29 472 44 39 9 133 27 210 41 143 27 196 42 345
97 90 33 259 111 322 149 21 13 40 20 44 17 16 -16 -9 -957 -32 -1198 -8 -91
-22 -198 -29 -238 -8 -41 -12 -79 -8 -85 3 -5 2 -7 -4 -4 -6 4 -16 -12 -23
-36 -31 -99 -74 -172 -144 -243 -39 -39 -89 -81 -111 -92 l-40 -21 851 -1 852
0 -33 83 c-71 180 -95 244 -95 256 0 7 -9 26 -21 43 -12 16 -19 31 -16 34 7 7
-14 69 -63 194 -23 58 -48 123 -54 145 -7 22 -18 53 -24 68 -7 16 -12 35 -12
43 0 8 -4 14 -9 14 -5 0 -13 15 -16 33 -4 17 -11 37 -15 42 -5 6 -18 44 -29
85 -12 41 -26 77 -31 78 -6 2 -10 10 -10 18 0 8 -13 43 -30 77 -16 35 -30 67
-30 71 0 4 -16 41 -35 82 -19 41 -35 77 -35 80 0 3 -9 18 -19 32 -10 15 -38
65 -62 112 -24 47 -45 87 -48 90 -11 9 -31 50 -31 60 0 6 -11 21 -24 33 -21
20 -36 42 -76 117 -8 16 -27 42 -42 59 -16 17 -28 33 -28 36 0 8 -73 119 -85
130 -6 6 -24 30 -39 54 -15 24 -41 56 -57 72 -16 16 -29 34 -29 42 0 8 21 41
48 74 70 89 104 154 148 277 20 58 24 88 24 187 0 65 -5 142 -11 171 -11 53
-47 149 -60 158 -11 9 -89 172 -89 187 0 8 -8 22 -18 31 -10 10 -24 35 -31 57
-8 22 -30 76 -51 120 -21 44 -41 91 -45 105 -6 20 -49 106 -84 170 -4 8 -12
24 -18 35 -5 11 -15 29 -21 40 -5 11 -24 47 -40 80 -17 33 -49 94 -71 135 -23
41 -49 90 -57 109 -9 19 -22 40 -30 48 -8 8 -14 23 -14 33 0 10 -9 20 -20 23
-11 3 -24 16 -30 29 -12 28 -30 57 -47 76 -7 7 -13 17 -13 21 0 7 -26 40 -65
82 -8 9 -15 20 -15 26 0 5 -9 18 -20 28 -26 24 -25 17 7 -52 29 -64 34 -76 59
-148 10 -27 23 -53 28 -57 6 -4 -6 -8 -26 -8 -21 0 -38 4 -38 8 0 10 -100 61
-175 90 -56 22 -149 43 -195 44 -16 1 -30 5 -30 10 0 4 -15 8 -33 8 -19 0 -80
7 -138 16 -152 23 -369 41 -369 31 0 -5 -6 -5 -12 1 -7 5 -39 12 -70 14 -32 3
-60 7 -64 10 -3 3 5 17 18 31 13 14 30 38 38 54 8 15 17 30 20 33 3 3 17 21
30 40 27 38 48 64 98 121 18 20 29 39 25 41 -4 3 -2 3 5 2 7 -2 20 6 30 17 9
12 47 42 84 69 78 55 85 44 -77 111 -123 50 -272 95 -385 115 -84 15 -380 17
-380 3z m747 -675 c-3 -3 -12 -4 -19 -1 -8 3 -5 6 6 6 11 1 17 -2 13 -5z
m-439 -861 c-10 -2 -28 -2 -40 0 -13 2 -5 4 17 4 22 1 32 -1 23 -4z m-14 -112
l19 -21 -51 0 c-56 0 -60 4 -36 38 17 24 34 20 68 -17z m-959 8 c-27 -11 -55
-11 -55 0 0 5 17 9 38 9 28 0 32 -2 17 -9z m620 -166 c50 -71 50 -73 27 -66
-29 7 -90 61 -107 94 -15 29 -15 29 12 29 23 0 36 -11 68 -57z m451 -30 c7
-10 14 -23 14 -30 0 -15 -123 -118 -127 -106 -4 10 85 153 95 153 3 0 11 -8
18 -17z m-3126 -2888 c0 -8 -4 -15 -10 -15 -5 0 -10 7 -10 15 0 8 5 15 10 15
6 0 10 -7 10 -15z"/>
<path d="M3040 1559 c0 -5 -4 -7 -10 -4 -12 7 -13 -24 -2 -42 4 -6 19 -14 34
-18 30 -8 45 -34 26 -47 -10 -6 -10 -8 2 -9 8 -1 21 -1 27 0 7 1 10 -4 8 -11
-5 -11 21 -13 132 -11 134 3 158 -1 91 -17 l-33 -8 30 -1 c31 -1 83 15 125 38
29 17 55 41 43 41 -5 0 -14 -5 -20 -11 -16 -16 -304 -15 -333 1 -11 6 -25 8
-30 5 -6 -3 -10 -2 -10 4 0 5 -13 18 -29 27 -17 10 -28 21 -25 26 7 12 -5 48
-17 48 -5 0 -9 -5 -9 -11z m347 -125 c-3 -3 -12 -4 -19 -1 -8 3 -5 6 6 6 11 1
17 -2 13 -5z"/>
<path d="M3520 1538 c0 -13 4 -29 9 -37 7 -11 10 -10 15 6 7 23 -2 53 -15 53
-5 0 -9 -10 -9 -22z"/>
<path d="M3500 1500 c0 -5 5 -10 10 -10 6 0 10 5 10 10 0 6 -4 10 -10 10 -5 0
-10 -4 -10 -10z"/>
<path d="M3456 1475 c-11 -8 -16 -18 -12 -22 3 -4 16 3 29 15 24 25 12 29 -17
7z"/>
<path d="M3170 1406 c0 -2 7 -6 15 -10 8 -3 15 -1 15 4 0 6 -7 10 -15 10 -8 0
-15 -2 -15 -4z"/>
</g>
</svg>
